<mxfile host="app.diagrams.net" agent="Mozilla/5.0 (Windows NT 10.0; Win64; x64) AppleWebKit/537.36 (KHTML, like Gecko) Chrome/133.0.0.0 Safari/537.36" version="26.0.16">
  <diagram name="Page-1" id="74e2e168-ea6b-b213-b513-2b3c1d86103e">
    <mxGraphModel dx="870" dy="870" grid="1" gridSize="10" guides="1" tooltips="1" connect="1" arrows="1" fold="1" page="1" pageScale="1" pageWidth="1100" pageHeight="850" background="none" math="0" shadow="0">
      <root>
        <mxCell id="0" />
        <mxCell id="1" parent="0" />
        <mxCell id="oiLMRj1fbkJl4FF8JyNT-43" value="" style="whiteSpace=wrap;html=1;" parent="1" vertex="1">
          <mxGeometry x="135" y="135" width="1070" height="900" as="geometry" />
        </mxCell>
        <mxCell id="oiLMRj1fbkJl4FF8JyNT-2" value="User" style="shape=umlActor;verticalLabelPosition=bottom;verticalAlign=top;html=1;outlineConnect=0;" parent="1" vertex="1">
          <mxGeometry x="190" y="166" width="30" height="60" as="geometry" />
        </mxCell>
        <mxCell id="oiLMRj1fbkJl4FF8JyNT-3" value="" style="endArrow=none;html=1;rounded=0;entryX=0.288;entryY=0.003;entryDx=0;entryDy=0;entryPerimeter=0;exitX=0.121;exitY=1.005;exitDx=0;exitDy=0;exitPerimeter=0;" parent="1" source="oiLMRj1fbkJl4FF8JyNT-43" edge="1">
          <mxGeometry width="50" height="50" relative="1" as="geometry">
            <mxPoint x="260" y="780" as="sourcePoint" />
            <mxPoint x="264.70000000000005" y="132.35000000000005" as="targetPoint" />
          </mxGeometry>
        </mxCell>
        <mxCell id="oiLMRj1fbkJl4FF8JyNT-5" value="&lt;font style=&quot;font-size: 18px;&quot;&gt;Account&lt;/font&gt;" style="text;html=1;align=center;verticalAlign=middle;whiteSpace=wrap;rounded=0;" parent="1" vertex="1">
          <mxGeometry x="316" y="185" width="60" height="30" as="geometry" />
        </mxCell>
        <mxCell id="oiLMRj1fbkJl4FF8JyNT-6" value="" style="shape=link;html=1;rounded=0;entryX=0.996;entryY=0.127;entryDx=0;entryDy=0;entryPerimeter=0;" parent="1" edge="1">
          <mxGeometry width="100" relative="1" as="geometry">
            <mxPoint x="140" y="263" as="sourcePoint" />
            <mxPoint x="1195.7600000000002" y="257.6199999999999" as="targetPoint" />
          </mxGeometry>
        </mxCell>
        <mxCell id="oiLMRj1fbkJl4FF8JyNT-7" value="" style="endArrow=none;html=1;rounded=0;entryX=0.288;entryY=0.003;entryDx=0;entryDy=0;entryPerimeter=0;" parent="1" edge="1">
          <mxGeometry width="50" height="50" relative="1" as="geometry">
            <mxPoint x="420" y="780" as="sourcePoint" />
            <mxPoint x="423" y="130" as="targetPoint" />
            <Array as="points">
              <mxPoint x="420" y="1040" />
              <mxPoint x="420" y="780" />
            </Array>
          </mxGeometry>
        </mxCell>
        <mxCell id="oiLMRj1fbkJl4FF8JyNT-8" value="" style="endArrow=classic;html=1;rounded=0;strokeWidth=2;fillColor=#008a00;strokeColor=#005700;" parent="1" edge="1">
          <mxGeometry width="50" height="50" relative="1" as="geometry">
            <mxPoint x="200" y="340" as="sourcePoint" />
            <mxPoint x="320" y="340" as="targetPoint" />
            <Array as="points">
              <mxPoint x="320" y="340" />
              <mxPoint x="290" y="340" />
            </Array>
          </mxGeometry>
        </mxCell>
        <mxCell id="oiLMRj1fbkJl4FF8JyNT-9" value="&lt;font style=&quot;font-size: 18px;&quot;&gt;Transaction Service&lt;/font&gt;" style="text;html=1;align=center;verticalAlign=middle;whiteSpace=wrap;rounded=0;" parent="1" vertex="1">
          <mxGeometry x="480" y="185" width="60" height="30" as="geometry" />
        </mxCell>
        <mxCell id="oiLMRj1fbkJl4FF8JyNT-11" value="&lt;font style=&quot;font-size: 18px;&quot;&gt;Batch Proc Service&lt;/font&gt;" style="text;html=1;align=center;verticalAlign=middle;whiteSpace=wrap;rounded=0;" parent="1" vertex="1">
          <mxGeometry x="610" y="185" width="120" height="30" as="geometry" />
        </mxCell>
        <mxCell id="oiLMRj1fbkJl4FF8JyNT-12" value="&lt;font style=&quot;font-size: 18px;&quot;&gt;Storage Service&lt;/font&gt;" style="text;html=1;align=center;verticalAlign=middle;whiteSpace=wrap;rounded=0;" parent="1" vertex="1">
          <mxGeometry x="760" y="185" width="120" height="30" as="geometry" />
        </mxCell>
        <mxCell id="oiLMRj1fbkJl4FF8JyNT-13" value="&lt;font style=&quot;font-size: 18px;&quot;&gt;Notification Service&lt;/font&gt;" style="text;html=1;align=center;verticalAlign=middle;whiteSpace=wrap;rounded=0;" parent="1" vertex="1">
          <mxGeometry x="925" y="185" width="120" height="30" as="geometry" />
        </mxCell>
        <mxCell id="oiLMRj1fbkJl4FF8JyNT-14" value="" style="endArrow=none;html=1;rounded=0;entryX=0.288;entryY=0.003;entryDx=0;entryDy=0;entryPerimeter=0;exitX=0.43;exitY=1;exitDx=0;exitDy=0;exitPerimeter=0;" parent="1" source="oiLMRj1fbkJl4FF8JyNT-43" edge="1">
          <mxGeometry width="50" height="50" relative="1" as="geometry">
            <mxPoint x="590" y="780" as="sourcePoint" />
            <mxPoint x="593" y="129" as="targetPoint" />
            <Array as="points" />
          </mxGeometry>
        </mxCell>
        <mxCell id="oiLMRj1fbkJl4FF8JyNT-15" value="" style="endArrow=none;html=1;rounded=0;entryX=0.288;entryY=0.003;entryDx=0;entryDy=0;entryPerimeter=0;exitX=0.569;exitY=1;exitDx=0;exitDy=0;exitPerimeter=0;" parent="1" source="oiLMRj1fbkJl4FF8JyNT-43" edge="1">
          <mxGeometry width="50" height="50" relative="1" as="geometry">
            <mxPoint x="740" y="780" as="sourcePoint" />
            <mxPoint x="743" y="131" as="targetPoint" />
            <Array as="points" />
          </mxGeometry>
        </mxCell>
        <mxCell id="oiLMRj1fbkJl4FF8JyNT-16" value="" style="endArrow=none;html=1;rounded=0;entryX=0.288;entryY=0.003;entryDx=0;entryDy=0;entryPerimeter=0;exitX=0.718;exitY=1.007;exitDx=0;exitDy=0;exitPerimeter=0;" parent="1" source="oiLMRj1fbkJl4FF8JyNT-43" edge="1">
          <mxGeometry width="50" height="50" relative="1" as="geometry">
            <mxPoint x="900" y="1070" as="sourcePoint" />
            <mxPoint x="903" y="129" as="targetPoint" />
            <Array as="points" />
          </mxGeometry>
        </mxCell>
        <mxCell id="oiLMRj1fbkJl4FF8JyNT-17" value="" style="endArrow=classic;html=1;rounded=0;strokeWidth=2;entryX=0.642;entryY=0.198;entryDx=0;entryDy=0;entryPerimeter=0;fillColor=#008a00;strokeColor=#005700;" parent="1" edge="1">
          <mxGeometry width="50" height="50" relative="1" as="geometry">
            <mxPoint x="340" y="340" as="sourcePoint" />
            <mxPoint x="820.52" y="339.8800000000001" as="targetPoint" />
            <Array as="points">
              <mxPoint x="480" y="340" />
              <mxPoint x="450" y="340" />
            </Array>
          </mxGeometry>
        </mxCell>
        <mxCell id="oiLMRj1fbkJl4FF8JyNT-18" value="" style="endArrow=classic;html=1;rounded=0;strokeWidth=2;fillColor=#008a00;strokeColor=#005700;" parent="1" edge="1">
          <mxGeometry width="50" height="50" relative="1" as="geometry">
            <mxPoint x="860" y="340" as="sourcePoint" />
            <mxPoint x="990" y="340" as="targetPoint" />
            <Array as="points">
              <mxPoint x="970" y="340" />
            </Array>
          </mxGeometry>
        </mxCell>
        <mxCell id="oiLMRj1fbkJl4FF8JyNT-20" value="" style="endArrow=classic;html=1;rounded=0;strokeWidth=2;entryX=0;entryY=0.284;entryDx=0;entryDy=0;entryPerimeter=0;fillColor=#008a00;strokeColor=#005700;" parent="1" edge="1">
          <mxGeometry width="50" height="50" relative="1" as="geometry">
            <mxPoint x="350" y="417" as="sourcePoint" />
            <mxPoint x="200" y="416.96000000000004" as="targetPoint" />
            <Array as="points" />
          </mxGeometry>
        </mxCell>
        <mxCell id="oiLMRj1fbkJl4FF8JyNT-21" value="" style="endArrow=classic;html=1;rounded=0;strokeWidth=2;entryX=0.34;entryY=0.33;entryDx=0;entryDy=0;entryPerimeter=0;fillColor=#a20025;strokeColor=#6F0000;" parent="1" edge="1">
          <mxGeometry width="50" height="50" relative="1" as="geometry">
            <mxPoint x="210" y="542" as="sourcePoint" />
            <mxPoint x="500.4000000000001" y="541.8" as="targetPoint" />
            <Array as="points">
              <mxPoint x="350" y="542" />
              <mxPoint x="320" y="542" />
            </Array>
          </mxGeometry>
        </mxCell>
        <mxCell id="oiLMRj1fbkJl4FF8JyNT-22" value="" style="endArrow=classic;html=1;rounded=0;strokeWidth=2;fillColor=#a20025;strokeColor=#6F0000;" parent="1" edge="1">
          <mxGeometry width="50" height="50" relative="1" as="geometry">
            <mxPoint x="511" y="713" as="sourcePoint" />
            <mxPoint x="651" y="713" as="targetPoint" />
            <Array as="points">
              <mxPoint x="651" y="713" />
              <mxPoint x="621" y="713" />
            </Array>
          </mxGeometry>
        </mxCell>
        <mxCell id="oiLMRj1fbkJl4FF8JyNT-23" value="" style="endArrow=classic;html=1;rounded=0;strokeWidth=2;fillColor=#a20025;strokeColor=#6F0000;" parent="1" edge="1">
          <mxGeometry width="50" height="50" relative="1" as="geometry">
            <mxPoint x="685" y="712" as="sourcePoint" />
            <mxPoint x="825" y="712" as="targetPoint" />
            <Array as="points">
              <mxPoint x="825" y="712" />
              <mxPoint x="795" y="712" />
            </Array>
          </mxGeometry>
        </mxCell>
        <mxCell id="oiLMRj1fbkJl4FF8JyNT-24" value="" style="endArrow=classic;html=1;rounded=0;strokeWidth=2;fillColor=#a20025;strokeColor=#6F0000;" parent="1" edge="1">
          <mxGeometry width="50" height="50" relative="1" as="geometry">
            <mxPoint x="851" y="713" as="sourcePoint" />
            <mxPoint x="991" y="713" as="targetPoint" />
            <Array as="points">
              <mxPoint x="991" y="713" />
              <mxPoint x="961" y="713" />
            </Array>
          </mxGeometry>
        </mxCell>
        <mxCell id="oiLMRj1fbkJl4FF8JyNT-25" value="" style="endArrow=classic;html=1;rounded=0;strokeWidth=2;entryX=0;entryY=0.284;entryDx=0;entryDy=0;entryPerimeter=0;exitX=0.904;exitY=0.287;exitDx=0;exitDy=0;exitPerimeter=0;fillColor=#a20025;strokeColor=#6F0000;" parent="1" edge="1">
          <mxGeometry width="50" height="50" relative="1" as="geometry">
            <mxPoint x="1000" y="826.04" as="sourcePoint" />
            <mxPoint x="210" y="823" as="targetPoint" />
            <Array as="points" />
          </mxGeometry>
        </mxCell>
        <mxCell id="oiLMRj1fbkJl4FF8JyNT-27" value="User creates the account" style="text;html=1;align=center;verticalAlign=middle;whiteSpace=wrap;rounded=0;" parent="1" vertex="1">
          <mxGeometry x="290" y="280" width="110" height="30" as="geometry" />
        </mxCell>
        <mxCell id="oiLMRj1fbkJl4FF8JyNT-28" value="account save in DB" style="text;html=1;align=center;verticalAlign=middle;whiteSpace=wrap;rounded=0;" parent="1" vertex="1">
          <mxGeometry x="765" y="295" width="110" height="30" as="geometry" />
        </mxCell>
        <mxCell id="oiLMRj1fbkJl4FF8JyNT-29" value="creates a notification" style="text;html=1;align=center;verticalAlign=middle;whiteSpace=wrap;rounded=0;" parent="1" vertex="1">
          <mxGeometry x="930" y="298" width="110" height="30" as="geometry" />
        </mxCell>
        <mxCell id="oiLMRj1fbkJl4FF8JyNT-30" value="send api response" style="text;html=1;align=center;verticalAlign=middle;whiteSpace=wrap;rounded=0;" parent="1" vertex="1">
          <mxGeometry x="291" y="380" width="110" height="30" as="geometry" />
        </mxCell>
        <mxCell id="oiLMRj1fbkJl4FF8JyNT-31" value="user generates a transaction" style="text;html=1;align=center;verticalAlign=middle;whiteSpace=wrap;rounded=0;" parent="1" vertex="1">
          <mxGeometry x="150" y="500" width="110" height="30" as="geometry" />
        </mxCell>
        <mxCell id="oiLMRj1fbkJl4FF8JyNT-32" value="transaction processed" style="text;html=1;align=center;verticalAlign=middle;whiteSpace=wrap;rounded=0;" parent="1" vertex="1">
          <mxGeometry x="455" y="492" width="110" height="30" as="geometry" />
        </mxCell>
        <mxCell id="oiLMRj1fbkJl4FF8JyNT-33" value="generates statement" style="text;html=1;align=center;verticalAlign=middle;whiteSpace=wrap;rounded=0;" parent="1" vertex="1">
          <mxGeometry x="610" y="670" width="110" height="30" as="geometry" />
        </mxCell>
        <mxCell id="oiLMRj1fbkJl4FF8JyNT-34" value="saves statement" style="text;html=1;align=center;verticalAlign=middle;whiteSpace=wrap;rounded=0;" parent="1" vertex="1">
          <mxGeometry x="760" y="663" width="110" height="30" as="geometry" />
        </mxCell>
        <mxCell id="oiLMRj1fbkJl4FF8JyNT-35" value="creates a notification" style="text;html=1;align=center;verticalAlign=middle;whiteSpace=wrap;rounded=0;" parent="1" vertex="1">
          <mxGeometry x="915" y="670" width="110" height="30" as="geometry" />
        </mxCell>
        <mxCell id="oiLMRj1fbkJl4FF8JyNT-36" value="sends notification of statement generated to user" style="text;html=1;align=center;verticalAlign=middle;whiteSpace=wrap;rounded=0;" parent="1" vertex="1">
          <mxGeometry x="920" y="777" width="110" height="30" as="geometry" />
        </mxCell>
        <mxCell id="oiLMRj1fbkJl4FF8JyNT-37" value="" style="endArrow=none;html=1;rounded=0;entryX=0.288;entryY=0.003;entryDx=0;entryDy=0;entryPerimeter=0;exitX=0.869;exitY=0.999;exitDx=0;exitDy=0;exitPerimeter=0;" parent="1" source="oiLMRj1fbkJl4FF8JyNT-43" edge="1">
          <mxGeometry width="50" height="50" relative="1" as="geometry">
            <mxPoint x="1060" y="780" as="sourcePoint" />
            <mxPoint x="1063" y="130" as="targetPoint" />
            <Array as="points" />
          </mxGeometry>
        </mxCell>
        <mxCell id="oiLMRj1fbkJl4FF8JyNT-39" value="Admin" style="shape=umlActor;verticalLabelPosition=bottom;verticalAlign=top;html=1;outlineConnect=0;" parent="1" vertex="1">
          <mxGeometry x="1120" y="162" width="30" height="60" as="geometry" />
        </mxCell>
        <mxCell id="oiLMRj1fbkJl4FF8JyNT-40" value="" style="endArrow=classic;html=1;rounded=0;entryX=0.642;entryY=0.5;entryDx=0;entryDy=0;entryPerimeter=0;strokeWidth=2;fillColor=#0050ef;strokeColor=#001DBC;" parent="1" edge="1">
          <mxGeometry width="50" height="50" relative="1" as="geometry">
            <mxPoint x="1120" y="980" as="sourcePoint" />
            <mxPoint x="810.52" y="980" as="targetPoint" />
          </mxGeometry>
        </mxCell>
        <mxCell id="oiLMRj1fbkJl4FF8JyNT-41" value="Admin can view user&#39;s statement" style="text;html=1;align=center;verticalAlign=middle;whiteSpace=wrap;rounded=0;" parent="1" vertex="1">
          <mxGeometry x="1080" y="920" width="110" height="30" as="geometry" />
        </mxCell>
        <mxCell id="oiLMRj1fbkJl4FF8JyNT-48" value="" style="endArrow=classic;html=1;rounded=0;strokeWidth=2;entryX=0;entryY=0.284;entryDx=0;entryDy=0;entryPerimeter=0;fillColor=#a20025;strokeColor=#6F0000;" parent="1" edge="1">
          <mxGeometry width="50" height="50" relative="1" as="geometry">
            <mxPoint x="510" y="618" as="sourcePoint" />
            <mxPoint x="200" y="618" as="targetPoint" />
            <Array as="points" />
          </mxGeometry>
        </mxCell>
        <mxCell id="oiLMRj1fbkJl4FF8JyNT-49" value="sends response of trans result to user" style="text;html=1;align=center;verticalAlign=middle;whiteSpace=wrap;rounded=0;" parent="1" vertex="1">
          <mxGeometry x="455" y="580" width="110" height="30" as="geometry" />
        </mxCell>
        <mxCell id="oiLMRj1fbkJl4FF8JyNT-50" value="" style="endArrow=classic;html=1;rounded=0;strokeWidth=2;fillColor=#a20025;strokeColor=#6F0000;" parent="1" edge="1">
          <mxGeometry width="50" height="50" relative="1" as="geometry">
            <mxPoint x="199.8" y="910.2" as="sourcePoint" />
            <mxPoint x="830" y="910" as="targetPoint" />
            <Array as="points">
              <mxPoint x="339.8" y="910.2" />
              <mxPoint x="309.8" y="910.2" />
            </Array>
          </mxGeometry>
        </mxCell>
        <mxCell id="oiLMRj1fbkJl4FF8JyNT-51" value="user can view statement" style="text;html=1;align=center;verticalAlign=middle;whiteSpace=wrap;rounded=0;" parent="1" vertex="1">
          <mxGeometry x="765" y="870" width="110" height="30" as="geometry" />
        </mxCell>
        <mxCell id="oiLMRj1fbkJl4FF8JyNT-52" value="(sync)" style="text;html=1;align=center;verticalAlign=middle;whiteSpace=wrap;rounded=0;" parent="1" vertex="1">
          <mxGeometry x="455" y="462" width="110" height="30" as="geometry" />
        </mxCell>
        <mxCell id="oiLMRj1fbkJl4FF8JyNT-55" value="(sync)" style="text;html=1;align=center;verticalAlign=middle;whiteSpace=wrap;rounded=0;" parent="1" vertex="1">
          <mxGeometry x="455" y="550" width="110" height="30" as="geometry" />
        </mxCell>
        <mxCell id="oiLMRj1fbkJl4FF8JyNT-56" value="(Async Kafka)" style="text;html=1;align=center;verticalAlign=middle;whiteSpace=wrap;rounded=0;" parent="1" vertex="1">
          <mxGeometry x="920" y="735" width="110" height="30" as="geometry" />
        </mxCell>
        <mxCell id="oiLMRj1fbkJl4FF8JyNT-57" value="(Async Kafka)" style="text;html=1;align=center;verticalAlign=middle;whiteSpace=wrap;rounded=0;" parent="1" vertex="1">
          <mxGeometry x="610" y="640" width="110" height="30" as="geometry" />
        </mxCell>
        <mxCell id="oiLMRj1fbkJl4FF8JyNT-58" value="(Async Kafka)" style="text;html=1;align=center;verticalAlign=middle;whiteSpace=wrap;rounded=0;" parent="1" vertex="1">
          <mxGeometry x="765" y="640" width="110" height="30" as="geometry" />
        </mxCell>
        <mxCell id="oiLMRj1fbkJl4FF8JyNT-59" value="(Async Kafka)" style="text;html=1;align=center;verticalAlign=middle;whiteSpace=wrap;rounded=0;" parent="1" vertex="1">
          <mxGeometry x="915" y="640" width="110" height="30" as="geometry" />
        </mxCell>
        <mxCell id="oiLMRj1fbkJl4FF8JyNT-60" value="(sync)" style="text;html=1;align=center;verticalAlign=middle;whiteSpace=wrap;rounded=0;" parent="1" vertex="1">
          <mxGeometry x="150" y="470" width="110" height="30" as="geometry" />
        </mxCell>
        <mxCell id="oiLMRj1fbkJl4FF8JyNT-63" value="(sync)" style="text;html=1;align=center;verticalAlign=middle;whiteSpace=wrap;rounded=0;" parent="1" vertex="1">
          <mxGeometry x="150" y="300" width="110" height="30" as="geometry" />
        </mxCell>
        <mxCell id="oiLMRj1fbkJl4FF8JyNT-64" value="(sync)" style="text;html=1;align=center;verticalAlign=middle;whiteSpace=wrap;rounded=0;" parent="1" vertex="1">
          <mxGeometry x="286" y="350" width="110" height="30" as="geometry" />
        </mxCell>
        <mxCell id="oiLMRj1fbkJl4FF8JyNT-65" value="(sync)" style="text;html=1;align=center;verticalAlign=middle;whiteSpace=wrap;rounded=0;" parent="1" vertex="1">
          <mxGeometry x="770" y="840" width="110" height="30" as="geometry" />
        </mxCell>
        <mxCell id="oiLMRj1fbkJl4FF8JyNT-66" value="(Async Kafka)" style="text;html=1;align=center;verticalAlign=middle;whiteSpace=wrap;rounded=0;" parent="1" vertex="1">
          <mxGeometry x="1080" y="267" width="110" height="30" as="geometry" />
        </mxCell>
        <mxCell id="oiLMRj1fbkJl4FF8JyNT-67" value="" style="endArrow=classic;html=1;rounded=0;strokeWidth=2;entryX=0;entryY=0.284;entryDx=0;entryDy=0;entryPerimeter=0;exitX=0.904;exitY=0.287;exitDx=0;exitDy=0;exitPerimeter=0;fillColor=#008a00;strokeColor=#005700;" parent="1" edge="1">
          <mxGeometry width="50" height="50" relative="1" as="geometry">
            <mxPoint x="990" y="453.03999999999996" as="sourcePoint" />
            <mxPoint x="200" y="450" as="targetPoint" />
            <Array as="points" />
          </mxGeometry>
        </mxCell>
        <mxCell id="oiLMRj1fbkJl4FF8JyNT-68" value="" style="endArrow=classic;html=1;rounded=0;strokeWidth=2;fillColor=#008a00;strokeColor=#005700;" parent="1" edge="1">
          <mxGeometry width="50" height="50" relative="1" as="geometry">
            <mxPoint x="1010" y="340" as="sourcePoint" />
            <mxPoint x="1140" y="340" as="targetPoint" />
            <Array as="points">
              <mxPoint x="1120" y="340" />
            </Array>
          </mxGeometry>
        </mxCell>
        <mxCell id="oiLMRj1fbkJl4FF8JyNT-69" value="(Async Kafka)" style="text;html=1;align=center;verticalAlign=middle;whiteSpace=wrap;rounded=0;" parent="1" vertex="1">
          <mxGeometry x="930" y="271" width="110" height="30" as="geometry" />
        </mxCell>
        <mxCell id="oiLMRj1fbkJl4FF8JyNT-70" value="sends notification" style="text;html=1;align=center;verticalAlign=middle;whiteSpace=wrap;rounded=0;" parent="1" vertex="1">
          <mxGeometry x="1080" y="300" width="110" height="30" as="geometry" />
        </mxCell>
        <mxCell id="oiLMRj1fbkJl4FF8JyNT-71" value="(Async Kafka)" style="text;html=1;align=center;verticalAlign=middle;whiteSpace=wrap;rounded=0;" parent="1" vertex="1">
          <mxGeometry x="922" y="388" width="110" height="30" as="geometry" />
        </mxCell>
        <mxCell id="oiLMRj1fbkJl4FF8JyNT-72" value="sends welcome email to user" style="text;html=1;align=center;verticalAlign=middle;whiteSpace=wrap;rounded=0;" parent="1" vertex="1">
          <mxGeometry x="926" y="417" width="110" height="30" as="geometry" />
        </mxCell>
        <mxCell id="oiLMRj1fbkJl4FF8JyNT-73" value="(sync)" style="text;html=1;align=center;verticalAlign=middle;whiteSpace=wrap;rounded=0;" parent="1" vertex="1">
          <mxGeometry x="1080" y="890" width="110" height="30" as="geometry" />
        </mxCell>
        <mxCell id="oiLMRj1fbkJl4FF8JyNT-74" value="(sync)" style="text;html=1;align=center;verticalAlign=middle;whiteSpace=wrap;rounded=0;" parent="1" vertex="1">
          <mxGeometry x="770" y="267" width="110" height="30" as="geometry" />
        </mxCell>
      </root>
    </mxGraphModel>
  </diagram>
</mxfile>
